<svg xmlns="http://www.w3.org/2000/svg" viewBox="0 0 128 128" role="img" aria-label="VisaFlowX icon">
  <defs>
    <linearGradient id="g" x1="16" y1="16" x2="112" y2="112" gradientUnits="userSpaceOnUse">
      <stop offset="0" stop-color="#31d0aa"/>
      <stop offset="0.52" stop-color="#59a6ff"/>
      <stop offset="1" stop-color="#f8c66d"/>
    </linearGradient>
  </defs>
  <rect width="128" height="128" rx="28" fill="#0b1020"/>
  <path d="M28 35h72c8 0 14 6 14 14v30c0 8-6 14-14 14H78l-14 16-14-16H28c-8 0-14-6-14-14V49c0-8 6-14 14-14Z" fill="url(#g)"/>
  <path d="M36 61h22l8-14 15 31 9-17h14" fill="none" stroke="#07131e" stroke-width="9" stroke-linecap="round" stroke-linejoin="round"/>
  <path d="M36 61h22l8-14 15 31 9-17h14" fill="none" stroke="#eaf7ff" stroke-width="5" stroke-linecap="round" stroke-linejoin="round"/>
</svg>
